<svg height="511pt" viewBox="0 0 511.99743 511" width="511pt" xmlns="http://www.w3.org/2000/svg"><path d="m507.039062 118.753906c-2.835937-7.765625-11.421874-11.765625-19.195312-8.953125l-3.203125 1.160157c6.21875-17.636719 6.132813-36.710938-.371094-54.507813-2.835937-7.765625-11.421875-11.765625-19.199219-8.953125l-175.835937 63.738281-6.203125-16.96875c0-.003906 0-.007812-.003906-.007812 0-.003907 0-.003907 0-.007813l-22.703125-62.109375c0-.003906 0-.007812 0-.011719-.003907-.003906-.003907-.003906-.007813-.007812l-7.957031-21.773438c-2.839844-7.777343-11.453125-11.78125-19.234375-8.9375s-11.78125 11.457032-8.9375 19.234376l2.785156 7.621093-132.875 48.160157-33.984375-67.660157c-3.71875-7.402343-12.734375-10.386719-20.136719-6.671875-7.402343 3.71875-10.390624 12.734375-6.671874 20.136719l132.277343 263.34375-31.113281 34.667969c-.027344.03125-.058594.0625-.085938.097656l-82.0625 91.429688-20.566406 7.453124c-12.125 4.394532-21.796875 13.242188-27.238281 24.90625-5.417969 11.625-5.980469 24.664063-1.578125 36.714844 7.121094 19.476563 25.648438 31.601563 45.332031 31.601563 5.457031 0 11-.929688 16.414063-2.894531l44.324218-16.066407c.636719-.140625 1.273438-.308593 1.902344-.535156l293.828125-106.503906c7.785157-2.820313 11.8125-11.425781 8.988281-19.210938-2.824218-7.789062-11.425781-11.8125-19.210937-8.992187l-17.25 6.253906c.457031-6.851562-.503906-13.78125-2.933594-20.421875l-6.492187-17.765625 40.246094-14.585938c20.476562-7.421874 36.808593-22.355468 45.988281-42.046874 7.050781-15.117188 9.230469-31.65625 6.457031-47.75 19.46875-7.667969 34.984375-22.234376 43.84375-41.234376 9.148438-19.617187 10.09375-41.613281 2.664062-61.941406zm-47.898437-37.195312c.441406 8.222656-1.144531 16.480468-4.722656 24.160156-5.789063 12.414062-16.097657 21.835938-29.089844 26.542969l-37.863281 13.921875-75.464844 27.351562-12.472656-34.125zm-351.484375 21.863281 129.613281-46.976563 12.410157 33.949219-125.6875 45.554688zm-53.199219 377.933594c-9.445312 3.421875-19.917969-1.425781-23.34375-10.804688-1.648437-4.511719-1.441406-9.390625.589844-13.742187 2.046875-4.390625 5.695313-7.71875 10.269531-9.378906l24.105469-8.734376c2.320313-.84375 4.398437-2.246093 6.050781-4.085937l5.625-6.265625 39.636719 30.199219zm96.476563-34.96875-53.078125-40.441407 45.558593-50.757812 47.058594 76.867188zm194.570312-76.789063c-2.265625 4.859375-6.304687 8.550782-11.371094 10.386719l-114.875 41.636719-54.933593-89.730469 30.414062-33.882813c4.121094-4.59375 5.007813-11.238281 2.242188-16.753906l-59.429688-118.308594 122.421875-44.371093 6.183594 16.914062c.007812.023438.011719.039063.019531.0625.007813.019531.019531.039063.027344.0625l17.683594 48.382813c-17.800781 7.984375-31.980469 21.886718-40.292969 39.710937-9.148438 19.617188-10.09375 41.617188-2.664062 61.945313l22.832031 62.476562c2.222656 6.078125 7.96875 9.851563 14.089843 9.851563 1.695313 0 3.421876-.289063 5.109376-.898438l56.675781-20.546875 6.519531 17.84375c1.828125 4.992188 1.59375 10.398438-.652344 15.21875zm131.683594-201.578125c-5.789062 12.414063-16.097656 21.835938-29.089844 26.542969l-83.039062 30.53125c-7.773438 2.859375-11.761719 11.480469-8.902344 19.253906 2.859375 7.773438 11.476562 11.761719 19.253906 8.902344l56.1875-20.660156c.488282 8.308594-1.09375 16.65625-4.710937 24.414062-5.789063 12.414063-16.097657 21.832032-29.023438 26.519532l-54.335937 19.691406c-.027344.011718-.058594.019531-.085938.027344-.027344.011718-.050781.023437-.078125.035156l-56.558593 20.5-17.699219-48.425782c-4.675781-12.785156-4.078125-26.625 1.675781-38.96875 5.789062-12.414062 16.097656-21.835937 29.023438-26.519531l8.386718-3.039062h.007813c0-.003907.003906-.003907.003906-.003907l41.878906-15.179687c.859375-.152344 1.714844-.382813 2.558594-.691406l44.957031-16.53125 84.3125-30.558594c.441406 8.222656-1.140625 16.480469-4.722656 24.160156zm0 0"/><path d="m402.578125 442.640625c-.246094-1.519531-.5-3.039063-.761719-4.554687-1.402344-8.164063-9.164062-13.644532-17.320312-12.242188-8.164063 1.402344-13.644532 9.160156-12.242188 17.324219.242188 1.414062.480469 2.832031.710938 4.25 2.683594 16.640625 4.34375 33.652343 4.9375 50.5625.074218 2.148437.609375 4.261719 1.574218 6.1875 2.628907 5.257812 7.925782 8.296875 13.425782 8.296875 2.253906 0 4.542968-.511719 6.695312-1.585938 5.542969-2.773437 8.617188-8.507812 8.269532-14.324218-.648438-18.03125-2.425782-36.167969-5.289063-53.914063zm0 0"/><path d="m330.101562 445.644531c-8.199218 1.175781-13.894531 8.773438-12.722656 16.972657 1.671875 11.675781 2.765625 23.605468 3.246094 35.453124.328125 8.070313 6.972656 14.390626 14.976562 14.390626.203126 0 .414063-.003907.621094-.011719 8.273438-.335938 14.710938-7.320313 14.375-15.597657-.523437-12.859374-1.707031-25.808593-3.523437-38.484374-1.171875-8.199219-8.765625-13.898438-16.972657-12.722657zm0 0"/></svg>