<svg id="Capa_1" enable-background="new 0 0 512 512" height="512" viewBox="0 0 512 512" width="512" xmlns="http://www.w3.org/2000/svg"><g><path d="m508.765 3.194c-3.075-3.057-7.684-3.978-12.31-2.468l-64.462 20.881c-13.158 4.271-15.907 6.681-25.432 16.205l-218.849 218.845c-5.04.493-10.983 2.405-17.109 8.532l-14.121 14.12-29.533-29.518c-15.91-15.908-41.796-15.909-57.714.006-15.332 15.365-15.332 42.325.013 57.707 11.913 11.883 27.506 15.307 42.585 9.63l17.358 17.358-77.638 77.611c-13.804-.454-27.086 4.755-36.908 14.607-9.445 9.428-14.645 21.973-14.645 35.325 0 13.35 5.199 25.901 14.64 35.341 9.74 9.74 22.535 14.61 35.33 14.61 12.796 0 25.591-4.87 35.332-14.61 9.853-9.854 15.058-23.147 14.609-36.939l77.613-77.61 17.359 17.359c-5.683 15.086-2.255 30.67 9.637 42.562 7.686 7.686 18.267 11.528 28.852 11.527s21.174-3.845 28.861-11.533c15.883-15.917 15.881-41.789-.005-57.673l-29.528-29.528 14.132-14.152c6.13-6.131 8.044-12.068 8.534-17.113l96.263-96.233c2.929-2.929 2.93-7.677.001-10.607-2.927-2.929-7.676-2.93-10.607-.001l-85.962 85.935-.923-34.881 56.668-56.668c2.929-2.929 2.929-7.678 0-10.607s-7.677-2.93-10.607 0l-56.667 56.667-34.907-.924 208.542-208.538c8.527-8.526 9.224-9.223 19.452-12.543l58.469-18.939-18.938 58.463c-3.321 10.232-4.018 10.929-12.544 19.454l-98.066 98.035c-2.929 2.929-2.93 7.677-.001 10.607 2.927 2.93 7.676 2.93 10.606.002l98.066-98.036c9.523-9.522 11.934-12.271 16.207-25.434l20.89-64.486c1.491-4.668.541-9.284-2.543-12.348zm-388.117 415.294-27.138-27.117 17.846-17.839 27.125 27.124zm-28.436 28.436-27.143-27.122 17.833-17.827 27.14 27.119zm-17.516 39.845c-13.632 13.632-35.816 13.633-49.449 0-6.608-6.607-10.247-15.391-10.247-24.734 0-9.34 3.637-18.115 10.254-24.721 6.601-6.621 15.427-10.252 24.664-10.252.404 0 .809.007 1.215.021l11.59 11.582-16.412 16.433c-2.927 2.931-2.924 7.68.007 10.607 1.464 1.462 3.382 2.193 5.3 2.193 1.921 0 3.842-.733 5.307-2.2l16.41-16.431 11.598 11.59c.33 9.674-3.326 19.001-10.237 25.912zm74.391-96.72-27.123-27.122 17.833-17.827 27.12 27.12zm87.135-59.264-14.129 14.149-14.919-14.919c-2.93-2.929-7.678-2.929-10.607 0s-2.929 7.678 0 10.607l55.056 55.055c10.043 10.042 10.04 26.403-.001 36.465-10.442 10.444-27.88 8.613-36.493 0-11.638-11.638-7.905-23.887-4.645-30.153 1.511-2.903.964-6.451-1.35-8.766l-26.302-26.301c-.001-.001-.003-.003-.004-.004s-.003-.003-.004-.004l-64.028-64.027c-2.313-2.314-5.863-2.86-8.766-1.35-6.266 3.26-18.52 6.991-30.177-4.638-8.597-8.617-10.423-26.06-.007-36.499 10.062-10.061 26.434-10.062 36.497.001l55.708 55.679c2.928 2.928 7.677 2.927 10.607-.003 2.928-2.93 2.927-7.678-.003-10.607l-15.565-15.557 14.119-14.117c3.731-3.733 6.533-4.383 10.406-4.283l47.632 1.26 1.261 47.602c.102 3.869-.551 6.674-4.286 10.41z"/></g></svg>